<svg xmlns="http://www.w3.org/2000/svg" width="174" height="74" fill="none"><path fill="#FC004E" d="M68.614 46.882c-2.145.01-4.29.015-6.44.02-1.024 0-2.32 0-3.344.005.479-.2 1.456-.689 2.238-1.743 1.106-1.487 1.07-3.087 1.044-3.56-.01-.602-.015-1.209-.026-1.81-.01-1.004-.025-2.007-.035-3.005h-.664c-1.147 0-2.145.252-2.989.767a5.297 5.297 0 0 0-.941.735c-.977.998-1.235 2.248-1.394 3.015a9.456 9.456 0 0 0-.118.745c-.124.577-.504 1.94-1.708 3.107-1.765 1.713-3.971 1.724-4.434 1.718v5.144h6.137v13.858c0 .077 0 .139.01.206.036 1.59.53 2.855 1.491 3.827 1.009 1.008 2.326 1.512 3.94 1.512h6.93V66.27h-4.753c-.87 0-1.328-.437-1.374-1.296-.01-.057-.01-.113-.01-.175V52.025h6.723l-.278-5.143h-.005ZM13.06 10.123c1.697-.643 2.36-1.492 2.643-2.165.38-.906.242-1.924 1.018-2.495a1.87 1.87 0 0 1 .988-.32h4.26V0h-6.436c-1.147 0-2.145.252-2.988.766a4.786 4.786 0 0 0-.942.736c-.936.941-1.25 2.027-1.373 2.577 0 .422-.082 2.577-1.847 4.295-1.846 1.795-4.135 1.739-4.526 1.718v5.144h6.24V34.64h6.239V15.236h6.435v-5.144c-3.23.01-6.471.02-9.702.026l-.01.005ZM48.294 24.227c.926.02 1.857.046 2.788.072l2.793.077c.087-.288.196-.787.124-1.399a3.365 3.365 0 0 0-.68-1.666c-.75-.942-1.81-1.132-2.083-1.173l-2.932-.196c0-.344-.01-.684-.01-1.029v-.066c0-.839-.082-4.455-2.83-7.032-2.448-2.3-5.529-2.418-7.664-2.418-2.134 0-3.904.32-5.37.962-1.466.643-2.644 1.487-3.513 2.52a9.808 9.808 0 0 0-1.903 3.447l5.735 1.924c.232-1.122.73-2.037 1.487-2.747.766-.71 1.913-1.065 3.462-1.065 1.548 0 2.746.376 3.461 1.122.73.735 1.09 1.692 1.09 2.84v1.388h-6.733c-1.846 0-3.482.288-4.922.859-1.44.581-2.557 1.44-3.37 2.577-.802 1.137-1.203 2.551-1.203 4.228 0 1.677.401 3.107 1.203 4.285.813 1.168 1.904 2.063 3.298 2.67 1.384.607 2.952.916 4.696.916 1.744 0 3.071-.252 4.064-.746.988-.494 1.718-1.065 2.176-1.698.468-.643.756-1.167.895-1.558h.936v.046c0 .988.401 1.785 1.188 2.371.792.597 1.8.895 3.025.895h4.156V29.48h-1.98c-.427 0-.756-.103-.988-.319-.494-.458-.401-1.111-.39-1.157v-3.781l-.006.005Zm-6.039.71c0 1.615-.55 2.911-1.662 3.884-1.1.972-2.53 1.455-4.274 1.455-1.317 0-2.325-.277-3.014-.838-.7-.56-1.045-1.286-1.045-2.176 0-.89.335-1.59.988-2.083.664-.494 1.569-.736 2.726-.736h6.286v.494h-.005ZM90.629 13.585c-.746-1.307-1.739-2.28-2.968-2.922-1.24-.643-2.613-.972-4.136-.972-1.878 0-3.333.355-4.352 1.044a7.179 7.179 0 0 0-2.381 2.623h-.885c-.56-1.09-1.373-1.97-2.428-2.649-1.055-.674-2.454-1.018-4.203-1.018-1.615 0-2.921.308-3.914.925-.988.607-1.697 1.328-2.13 2.146h-.884v-2.67h-6.142v24.547h6.24V20.138c0-1.682.39-2.978 1.167-3.884.777-.905 1.867-1.363 3.287-1.363 1.26 0 2.232.335 2.922 1.019.689.674 1.034 1.692 1.034 3.045v15.684h6.24V20.138c0-1.682.39-2.978 1.167-3.884.777-.905 1.867-1.363 3.287-1.363 1.25 0 2.232.335 2.922 1.019.689.674 1.034 1.692 1.034 3.045v15.684h6.239V18.502c0-1.98-.376-3.621-1.111-4.923l-.005.006ZM122.553 22.38c-.093-1.326-.278-2.453-.561-3.389l-5.489 1.708c.345.962.505 1.996.458 3.117-.046 1.121-.689 2.3-1.934 3.529-1.204 1.214-2.603 1.867-4.192 1.96-1.59.092-2.999-.433-4.239-1.57l12.634-12.633-1.502-1.502c-1.775-1.774-3.678-2.988-5.725-3.621-2.037-.643-4.069-.72-6.086-.216-2.016.504-3.873 1.605-5.576 3.307-1.728 1.729-2.885 3.611-3.456 5.659-.571 2.037-.54 4.09.077 6.152.617 2.063 1.841 4.007 3.652 5.828l.422.422c1.821 1.82 3.77 3.035 5.843 3.642 2.083.606 4.146.617 6.199.035 2.047-.586 3.94-1.743 5.668-3.461 1.59-1.59 2.644-3.148 3.164-4.676.524-1.523.735-2.953.643-4.285v-.005ZM102.229 20.7c.093-1.307.736-2.552 1.924-3.745 1.137-1.137 2.371-1.764 3.688-1.867 1.327-.103 2.531.298 3.621 1.204l-8.112 8.122c-.838-1.168-1.213-2.408-1.121-3.714ZM97.4 51.98a11.06 11.06 0 0 0-4.605-4.306c-1.944-.988-4.135-1.487-6.584-1.487-2.448 0-4.63.494-6.584 1.487a11.061 11.061 0 0 0-4.593 4.305c-1.132 1.878-1.693 4.136-1.693 6.78v.792c0 2.634.56 4.892 1.693 6.78a11.16 11.16 0 0 0 4.593 4.305c1.95.988 4.146 1.487 6.584 1.487 2.438 0 4.64-.494 6.584-1.487 1.95-.987 3.483-2.428 4.604-4.305 1.121-1.888 1.682-4.146 1.682-6.78v-.792c0-2.644-.56-4.902-1.682-6.78Zm.035 7.062c-6.965 2.35-8.868 4.254-11.219 11.219-2.35-6.965-4.254-8.868-11.218-11.219 6.964-2.35 8.867-4.254 11.218-11.219 2.351 6.965 4.254 8.868 11.22 11.219ZM127.392 51.409c-.792-1.533-1.903-2.737-3.344-3.611-1.44-.88-3.106-1.317-5.025-1.317-2.212 0-3.858.39-4.949 1.167-1.085.777-1.831 1.595-2.222 2.449h-.895v-3.21h-6.136v24.547h6.239V58.96c0-2.279.525-4.053 1.579-5.324 1.065-1.27 2.552-1.903 4.455-1.903 1.692 0 2.978.468 3.894 1.389.905.925 1.353 2.304 1.353 4.156v14.156h6.239v-14.65c0-2.047-.391-3.837-1.188-5.37v-.005ZM135.309 46.881v24.547h6.239V46.88h-6.239ZM165.889 56.069c.931 1.312 1.399 2.654 1.399 4.028 0 1.373-.669 2.726-2.001 4.058-.885.885-1.877 1.492-2.973 1.821-1.091.324-2.227.309-3.395-.041-1.168-.35-2.299-1.07-3.395-2.166l-.35-.35c-1.095-1.095-1.821-2.232-2.171-3.4-.344-1.162-.354-2.299-.03-3.384.324-1.101.931-2.094 1.815-2.979.89-.89 1.796-1.466 2.722-1.728a4.892 4.892 0 0 1 2.705-.051 7.03 7.03 0 0 1 2.521 1.255l3.354-5.175c-1.513-1.05-3.143-1.718-4.897-1.996-1.744-.278-3.509-.113-5.283.489-1.77.607-3.488 1.744-5.144 3.4-1.677 1.677-2.845 3.544-3.513 5.612-.669 2.068-.731 4.151-.191 6.28.53 2.125 1.744 4.131 3.632 6.024l.489.489c1.893 1.893 3.893 3.102 6.028 3.637 2.12.535 4.213.473 6.281-.19 2.068-.664 3.935-1.837 5.612-3.514 1.677-1.677 2.793-3.374 3.395-5.15.607-1.769.771-3.533.489-5.282a13.471 13.471 0 0 0-1.816-4.933l-5.283 3.246ZM143.04 40.077c-2.865.967-3.647 1.748-4.614 4.614-.967-2.866-1.749-3.647-4.614-4.614 2.865-.968 3.647-1.75 4.614-4.615.967 2.866 1.749 3.647 4.614 4.614Z"/><path fill="#00E7F9" d="M64.757 48.631c-2.145.01-4.29.016-6.44.02-1.023 0-2.32 0-3.343.006.478-.2 1.456-.69 2.237-1.744 1.106-1.486 1.07-3.086 1.045-3.56-.01-.601-.016-1.208-.026-1.81-.01-1.003-.026-2.006-.036-3.004h-.664c-1.147 0-2.145.252-2.988.766a5.297 5.297 0 0 0-.942.736c-.977.998-1.234 2.248-1.394 3.014a9.465 9.465 0 0 0-.118.746 6.163 6.163 0 0 1-1.708 3.107c-1.764 1.713-3.97 1.723-4.434 1.718v5.144h6.137v13.857c0 .078 0 .14.01.206.036 1.59.53 2.855 1.492 3.827 1.008 1.009 2.325 1.513 3.94 1.513h6.929v-5.154h-4.753c-.87 0-1.327-.438-1.373-1.297-.01-.056-.01-.113-.01-.175V53.775h6.722l-.277-5.144h-.006ZM9.202 11.873c1.698-.643 2.361-1.492 2.644-2.166.381-.905.242-1.924 1.019-2.495a1.87 1.87 0 0 1 .987-.319h4.26V1.75h-6.435c-1.147 0-2.145.252-2.989.766a4.784 4.784 0 0 0-.941.736c-.936.94-1.25 2.026-1.374 2.577 0 .421-.082 2.577-1.846 4.295C2.68 11.919.39 11.862 0 11.842v5.144h6.24v19.402h6.24V16.986h6.434v-5.144c-3.23.01-6.47.02-9.701.026l-.01.005ZM44.437 25.977c.926.02 1.857.046 2.788.072l2.794.077c.087-.288.195-.787.123-1.4a3.363 3.363 0 0 0-.68-1.666c-.75-.941-1.81-1.132-2.082-1.173l-2.932-.195c0-.345-.01-.684-.01-1.029v-.067c0-.838-.083-4.454-2.83-7.032-2.448-2.299-5.53-2.417-7.664-2.417-2.135 0-3.904.319-5.37.962-1.466.643-2.644 1.486-3.514 2.52a9.808 9.808 0 0 0-1.903 3.447l5.735 1.923c.232-1.121.73-2.037 1.487-2.746.766-.71 1.914-1.065 3.462-1.065 1.548 0 2.747.375 3.462 1.121.73.736 1.09 1.692 1.09 2.84v1.388H31.66c-1.847 0-3.483.289-4.923.86-1.44.58-2.556 1.44-3.37 2.577-.802 1.136-1.203 2.55-1.203 4.228 0 1.677.401 3.107 1.204 4.285.813 1.167 1.903 2.062 3.297 2.67 1.384.606 2.953.915 4.697.915 1.743 0 3.07-.252 4.063-.746.988-.494 1.718-1.065 2.176-1.697.468-.643.756-1.168.895-1.559h.936v.046c0 .988.401 1.785 1.189 2.372.792.596 1.8.895 3.024.895h4.156v-5.155h-1.98c-.427 0-.756-.102-.988-.318-.493-.458-.4-1.111-.39-1.158v-3.78l-.006.005Zm-6.039.71c0 1.615-.55 2.91-1.661 3.883-1.1.972-2.53 1.456-4.275 1.456-1.317 0-2.325-.278-3.014-.839-.7-.56-1.044-1.286-1.044-2.175 0-.89.334-1.59.987-2.084.664-.494 1.57-.735 2.727-.735h6.285v.493h-.005ZM86.772 15.334c-.746-1.306-1.739-2.279-2.968-2.922-1.24-.643-2.613-.972-4.136-.972-1.877 0-3.333.355-4.351 1.044a7.179 7.179 0 0 0-2.382 2.624h-.885c-.56-1.09-1.373-1.97-2.428-2.65-1.054-.673-2.453-1.018-4.202-1.018-1.615 0-2.922.309-3.915.926-.987.607-1.697 1.327-2.13 2.145h-.884v-2.67h-6.142v24.547h6.24v-14.5c0-1.683.39-2.979 1.167-3.884.777-.906 1.868-1.363 3.287-1.363 1.26 0 2.233.334 2.922 1.018.69.674 1.034 1.693 1.034 3.045v15.684h6.24v-14.5c0-1.683.39-2.979 1.167-3.884.777-.906 1.867-1.363 3.287-1.363 1.25 0 2.233.334 2.922 1.018.69.674 1.034 1.693 1.034 3.045v15.684h6.24V20.252c0-1.98-.376-3.622-1.112-4.923l-.005.005ZM118.696 24.13c-.093-1.327-.278-2.453-.561-3.39l-5.488 1.708c.344.962.504 1.996.458 3.117-.047 1.122-.69 2.3-1.934 3.53-1.204 1.213-2.603 1.867-4.193 1.96-1.589.092-2.999-.433-4.238-1.57l12.633-12.633-1.502-1.502c-1.775-1.775-3.678-2.989-5.725-3.622-2.037-.643-4.069-.72-6.085-.216-2.017.505-3.874 1.605-5.576 3.308-1.729 1.728-2.886 3.61-3.457 5.658-.571 2.037-.54 4.09.077 6.152.617 2.063 1.842 4.007 3.652 5.828l.422.422c1.821 1.821 3.771 3.035 5.844 3.642 2.083.607 4.146.617 6.198.036 2.047-.586 3.94-1.744 5.669-3.462 1.589-1.59 2.644-3.148 3.163-4.676.525-1.522.736-2.952.643-4.285v-.005Zm-20.323-1.682c.092-1.306.735-2.551 1.923-3.744 1.137-1.137 2.372-1.765 3.689-1.868 1.327-.103 2.53.299 3.621 1.204l-8.112 8.122c-.839-1.168-1.214-2.407-1.121-3.714ZM93.543 53.729a11.06 11.06 0 0 0-4.604-4.306c-1.945-.987-4.136-1.486-6.584-1.486-2.449 0-4.63.494-6.585 1.486a11.063 11.063 0 0 0-4.593 4.306c-1.132 1.877-1.693 4.136-1.693 6.78v.792c0 2.633.561 4.892 1.693 6.78a11.161 11.161 0 0 0 4.593 4.305c1.95.988 4.146 1.486 6.585 1.486 2.438 0 4.64-.493 6.584-1.486 1.95-.988 3.482-2.428 4.604-4.306 1.12-1.887 1.682-4.146 1.682-6.78v-.791c0-2.644-.561-4.903-1.682-6.78Zm.035 7.063c-6.964 2.35-8.868 4.254-11.218 11.218-2.351-6.965-4.254-8.868-11.22-11.219 6.966-2.35 8.869-4.253 11.22-11.218 2.35 6.965 4.254 8.868 11.219 11.218ZM123.535 53.158c-.792-1.533-1.903-2.736-3.343-3.61-1.44-.88-3.107-1.318-5.026-1.318-2.212 0-3.858.391-4.948 1.168-1.085.777-1.831 1.594-2.222 2.448h-.895v-3.21h-6.137v24.547h6.24V60.71c0-2.278.524-4.053 1.579-5.324 1.065-1.27 2.551-1.903 4.454-1.903 1.693 0 2.979.468 3.894 1.389.906.926 1.353 2.304 1.353 4.156v14.156h6.24v-14.65c0-2.047-.391-3.837-1.189-5.37v-.005ZM131.452 48.63v24.547h6.24V48.63h-6.24ZM162.032 57.818c.931 1.312 1.4 2.655 1.4 4.028 0 1.373-.669 2.726-2.001 4.059-.885.884-1.878 1.491-2.974 1.82-1.09.325-2.227.31-3.395-.04-1.167-.35-2.299-1.07-3.395-2.166l-.349-.35c-1.096-1.096-1.821-2.232-2.171-3.4-.345-1.163-.355-2.3-.031-3.385.324-1.1.931-2.093 1.816-2.978.89-.89 1.795-1.466 2.721-1.728a4.895 4.895 0 0 1 2.706-.052c.89.232 1.728.648 2.52 1.255l3.354-5.175c-1.512-1.049-3.143-1.718-4.897-1.995-1.744-.278-3.508-.114-5.283.488-1.769.607-3.487 1.744-5.144 3.4-1.677 1.677-2.844 3.545-3.513 5.612-.669 2.068-.73 4.152-.19 6.281.53 2.125 1.744 4.13 3.631 6.024l.489.488c1.893 1.893 3.894 3.102 6.029 3.637 2.119.535 4.212.473 6.28-.19 2.068-.664 3.935-1.837 5.612-3.514 1.677-1.677 2.793-3.374 3.395-5.149.607-1.77.772-3.533.489-5.282a13.471 13.471 0 0 0-1.816-4.933l-5.283 3.245ZM139.184 41.826c-2.866.967-3.647 1.749-4.614 4.614-.968-2.865-1.749-3.647-4.615-4.614 2.866-.967 3.647-1.749 4.615-4.614.967 2.865 1.748 3.647 4.614 4.614Z"/><path fill="#fff" d="M66.352 47.96c-2.145.01-4.29.016-6.44.021-1.024 0-2.32 0-3.344.005.479-.2 1.456-.689 2.238-1.743 1.106-1.487 1.07-3.087 1.044-3.56-.01-.602-.016-1.209-.026-1.81-.01-1.004-.026-2.007-.036-3.005h-.663c-1.148 0-2.145.252-2.989.767a5.297 5.297 0 0 0-.941.735c-.978.998-1.235 2.248-1.394 3.015a9.458 9.458 0 0 0-.119.745 6.163 6.163 0 0 1-1.707 3.107c-1.765 1.713-3.971 1.724-4.434 1.718V53.1h6.136v13.858c0 .077 0 .139.01.206.037 1.59.53 2.855 1.492 3.827 1.008 1.008 2.325 1.512 3.94 1.512h6.93v-5.154h-4.754c-.869 0-1.327-.437-1.373-1.296-.01-.057-.01-.114-.01-.175V53.105h6.723l-.278-5.144h-.005ZM10.797 11.202c1.697-.643 2.361-1.491 2.644-2.165.38-.906.242-1.924 1.018-2.495a1.87 1.87 0 0 1 .988-.32h4.26V1.08H13.27c-1.147 0-2.145.252-2.988.766a4.783 4.783 0 0 0-.942.736c-.936.941-1.25 2.027-1.373 2.577 0 .422-.082 2.577-1.847 4.295-1.846 1.796-4.136 1.739-4.526 1.718v5.144h6.24v19.403h6.239V16.315h6.435v-5.144c-3.23.01-6.471.021-9.702.026l-.01.005ZM46.032 25.306c.926.02 1.857.046 2.788.072l2.793.077c.087-.288.195-.787.123-1.399a3.364 3.364 0 0 0-.679-1.666c-.75-.942-1.81-1.132-2.083-1.173l-2.932-.196c0-.344-.01-.684-.01-1.029v-.066c0-.839-.083-4.455-2.83-7.032-2.448-2.3-5.53-2.418-7.664-2.418-2.135 0-3.904.32-5.37.962-1.466.643-2.644 1.487-3.513 2.52a9.806 9.806 0 0 0-1.904 3.447l5.736 1.924c.231-1.122.73-2.037 1.486-2.747.767-.71 1.914-1.065 3.462-1.065 1.549 0 2.747.376 3.462 1.122.73.735 1.09 1.692 1.09 2.84v1.388h-6.733c-1.846 0-3.482.288-4.922.859-1.44.581-2.557 1.44-3.37 2.577-.802 1.137-1.203 2.551-1.203 4.228 0 1.677.4 3.107 1.203 4.285.813 1.168 1.904 2.063 3.297 2.67 1.384.607 2.953.916 4.697.916 1.744 0 3.07-.253 4.064-.746.987-.494 1.718-1.065 2.175-1.698.468-.643.757-1.167.895-1.558h.937v.046c0 .988.4 1.785 1.188 2.371.792.597 1.8.895 3.024.895h4.157v-5.154h-1.98c-.427 0-.757-.103-.988-.319-.494-.458-.401-1.111-.391-1.157V25.3l-.005.005Zm-6.04.71c0 1.615-.55 2.911-1.66 3.884-1.102.972-2.532 1.455-4.275 1.455-1.317 0-2.325-.277-3.015-.838-.7-.56-1.044-1.286-1.044-2.176 0-.89.334-1.59.988-2.083.663-.494 1.569-.736 2.726-.736h6.286v.494h-.005ZM88.367 14.664c-.746-1.307-1.74-2.28-2.969-2.922-1.24-.643-2.613-.972-4.135-.972-1.878 0-3.334.354-4.352 1.044a7.179 7.179 0 0 0-2.382 2.623h-.884c-.561-1.09-1.374-1.97-2.428-2.649-1.055-.674-2.454-1.018-4.203-1.018-1.615 0-2.922.308-3.914.925-.988.607-1.698 1.328-2.13 2.146h-.885v-2.67h-6.142v24.547h6.24V21.217c0-1.682.391-2.978 1.168-3.884.776-.905 1.867-1.363 3.287-1.363 1.26 0 2.232.335 2.921 1.019.69.673 1.034 1.692 1.034 3.045v15.684h6.24V21.217c0-1.682.39-2.978 1.168-3.884.776-.905 1.867-1.363 3.286-1.363 1.25 0 2.233.335 2.922 1.019.69.673 1.034 1.692 1.034 3.045v15.684h6.24V19.58c0-1.98-.376-3.621-1.111-4.923l-.005.006ZM120.29 23.46c-.092-1.327-.277-2.454-.56-3.39l-5.489 1.708c.345.962.504 1.996.458 3.117-.046 1.121-.689 2.3-1.934 3.529-1.204 1.214-2.603 1.867-4.192 1.96-1.59.092-2.999-.433-4.239-1.57l12.633-12.633-1.502-1.502c-1.774-1.774-3.677-2.988-5.725-3.621-2.037-.643-4.069-.72-6.085-.216s-3.873 1.605-5.576 3.307c-1.728 1.729-2.886 3.611-3.457 5.659-.57 2.037-.54 4.09.078 6.152.617 2.063 1.841 4.007 3.652 5.828l.421.422c1.821 1.82 3.771 3.035 5.844 3.642 2.083.607 4.146.617 6.198.036 2.048-.587 3.941-1.744 5.669-3.462 1.589-1.59 2.644-3.148 3.163-4.676.525-1.523.736-2.953.643-4.285v-.005Zm-20.323-1.682c.092-1.307.735-2.552 1.924-3.745 1.136-1.137 2.371-1.764 3.688-1.867 1.327-.103 2.531.298 3.621 1.203l-8.112 8.123c-.838-1.168-1.214-2.408-1.121-3.714ZM95.137 53.058a11.06 11.06 0 0 0-4.604-4.305c-1.944-.988-4.136-1.487-6.584-1.487-2.449 0-4.63.494-6.584 1.487a11.063 11.063 0 0 0-4.594 4.305c-1.132 1.878-1.692 4.136-1.692 6.78v.792c0 2.634.56 4.892 1.692 6.78a11.161 11.161 0 0 0 4.594 4.305c1.95.988 4.146 1.487 6.584 1.487 2.438 0 4.64-.494 6.584-1.487 1.95-.987 3.483-2.428 4.604-4.305 1.121-1.888 1.682-4.146 1.682-6.78v-.792c0-2.644-.56-4.902-1.682-6.78Zm.036 7.063c-6.965 2.35-8.868 4.254-11.219 11.219-2.35-6.965-4.254-8.868-11.219-11.219 6.965-2.35 8.868-4.254 11.219-11.219 2.35 6.965 4.254 8.868 11.219 11.219ZM125.13 52.488c-.792-1.533-1.904-2.737-3.344-3.611-1.44-.88-3.107-1.317-5.025-1.317-2.212 0-3.858.39-4.949 1.167-1.085.777-1.831 1.595-2.222 2.449h-.895v-3.21h-6.137v24.547h6.24V60.039c0-2.279.525-4.054 1.579-5.324 1.065-1.27 2.551-1.903 4.455-1.903 1.692 0 2.978.468 3.894 1.389.905.925 1.352 2.304 1.352 4.156v14.156h6.24v-14.65c0-2.047-.391-3.837-1.188-5.37v-.005ZM133.047 47.96v24.547h6.239V47.96h-6.239ZM163.627 57.148c.931 1.312 1.399 2.654 1.399 4.028 0 1.373-.669 2.726-2.001 4.058-.885.885-1.878 1.492-2.973 1.821-1.091.324-2.228.309-3.395-.041-1.168-.35-2.3-1.07-3.395-2.166l-.35-.35c-1.096-1.095-1.821-2.232-2.171-3.4-.344-1.162-.355-2.299-.031-3.384.324-1.101.931-2.094 1.816-2.979.89-.89 1.795-1.466 2.721-1.728a4.896 4.896 0 0 1 2.706-.051c.89.231 1.728.648 2.52 1.255l3.354-5.175c-1.512-1.05-3.143-1.718-4.897-1.996-1.743-.278-3.508-.113-5.282.489-1.77.607-3.488 1.744-5.144 3.4-1.677 1.677-2.845 3.544-3.514 5.612-.668 2.068-.73 4.151-.19 6.28.53 2.125 1.744 4.131 3.632 6.024l.488.489c1.893 1.893 3.894 3.102 6.029 3.636 2.119.535 4.213.474 6.281-.19 2.067-.663 3.935-1.836 5.612-3.513 1.677-1.677 2.793-3.374 3.395-5.15.607-1.769.771-3.533.488-5.282a13.436 13.436 0 0 0-1.816-4.933l-5.282 3.246ZM140.778 41.156c-2.865.967-3.647 1.748-4.614 4.614-.967-2.866-1.749-3.647-4.614-4.614 2.865-.968 3.647-1.75 4.614-4.615.967 2.866 1.749 3.648 4.614 4.615Z"/></svg>